<?xml version="1.0" standalone="no"?>
<!DOCTYPE svg PUBLIC "-//W3C//DTD SVG 20010904//EN"
 "http://www.w3.org/TR/2001/REC-SVG-20010904/DTD/svg10.dtd">
<svg version="1.0" xmlns="http://www.w3.org/2000/svg"
 width="200.000000pt" height="200.000000pt" viewBox="0 0 200.000000 200.000000"
 preserveAspectRatio="xMidYMid meet">
<metadata>
Created by potrace 1.11, written by Peter Selinger 2001-2013
</metadata>
<g transform="translate(0.000000,200.000000) scale(0.100000,-0.100000)"
fill="#000000" stroke="none">
<path d="M835 1974 c-33 -8 -64 -19 -70 -25 -7 -8 -3 -9 13 -4 13 4 22 2 22
-4 0 -6 -9 -11 -19 -11 -26 0 -111 -84 -111 -110 0 -11 -5 -19 -12 -17 -35 7
-75 -185 -63 -310 4 -40 10 -73 13 -73 4 0 7 28 8 62 2 129 36 304 56 292 4
-3 8 2 8 11 0 8 11 20 24 25 13 5 25 13 27 19 2 5 18 11 34 13 17 2 41 10 54
17 12 7 31 11 40 8 10 -2 47 2 82 9 83 17 160 9 228 -24 47 -22 57 -33 77 -79
13 -30 24 -66 24 -81 0 -15 4 -34 10 -42 5 -9 5 -17 -1 -20 -6 -4 -3 -22 7
-46 11 -25 16 -64 16 -109 -2 -103 21 -56 26 56 5 103 -12 215 -39 255 -10 16
-28 43 -39 59 -20 32 -95 91 -151 120 -45 24 -183 28 -264 9z m203 -39 c-3 -3
-9 2 -12 12 -6 14 -5 15 5 6 7 -7 10 -15 7 -18z m-38 11 c0 -2 -9 -6 -20 -9
-11 -3 -18 -1 -14 4 5 9 34 13 34 5z m-95 -26 c3 -6 -1 -7 -9 -4 -18 7 -21 14
-7 14 6 0 13 -4 16 -10z m66 -21 c-27 -4 -54 -10 -60 -13 -6 -4 -11 -3 -11 3
0 11 33 22 75 25 14 0 25 6 25 11 0 6 5 3 10 -5 8 -12 1 -16 -39 -21z"/>
<path d="M1098 1588 c-17 -17 -17 -18 6 -18 13 0 27 6 29 13 4 10 6 10 6 0 1
-7 11 -13 24 -13 37 0 67 -12 67 -25 0 -7 7 -19 16 -26 14 -12 14 -9 0 26 -21
50 -41 66 -70 56 -11 -5 -30 -5 -41 -1 -13 4 -26 1 -37 -12z"/>
<path d="M685 1566 c-14 -14 -25 -35 -25 -48 1 -22 1 -22 12 -3 15 27 28 35
61 35 16 0 26 4 22 10 -8 12 -3 13 29 0 15 -5 26 -6 26 0 0 13 -14 19 -59 25
-35 4 -46 1 -66 -19z"/>
<path d="M1103 1483 c14 -14 21 -15 36 -6 15 10 22 9 31 -2 14 -16 30 -20 30
-7 0 14 -48 32 -83 32 -30 0 -30 -1 -14 -17z"/>
<path d="M750 1483 c-21 -8 -50 -34 -50 -46 0 -6 10 -1 23 10 15 15 30 20 48
16 16 -3 30 1 38 11 12 14 10 16 -15 15 -16 0 -36 -3 -44 -6z"/>
<path d="M1345 1439 c-4 -6 -5 -12 -2 -15 2 -3 7 2 10 11 7 17 1 20 -8 4z"/>
<path d="M1296 1293 c-12 -81 -37 -152 -52 -146 -8 3 -17 -2 -20 -11 -3 -9 -9
-14 -13 -12 -4 3 -5 -11 -3 -31 3 -25 1 -34 -7 -29 -6 4 -11 0 -11 -11 -1 -15
-3 -14 -14 6 l-13 23 -7 -33 c-9 -48 -47 -101 -68 -95 -10 2 -18 0 -18 -5 0
-4 -7 -6 -15 -3 -9 4 -18 -1 -21 -11 -5 -13 -9 -14 -15 -3 -7 10 -9 11 -9 0 0
-7 -5 -10 -11 -6 -6 3 -15 1 -19 -7 -7 -10 -12 -10 -26 2 -9 8 -19 13 -20 12
-7 -4 -39 10 -47 21 -6 7 -7 4 -3 -6 4 -14 0 -17 -17 -15 -14 1 -34 20 -55 52
-18 28 -37 49 -43 47 -5 -1 -12 5 -15 13 -3 8 -10 12 -15 9 -5 -3 -9 7 -9 23
0 22 -2 25 -10 13 -8 -13 -10 -12 -10 4 0 12 -5 16 -16 12 -8 -3 -13 -2 -9 3
3 5 -2 16 -10 24 -19 20 -35 61 -35 93 0 13 -4 24 -10 24 -5 0 -10 -5 -10 -11
0 -26 43 -158 70 -214 16 -33 32 -73 35 -89 7 -32 46 -73 117 -120 44 -30 52
-32 130 -31 103 2 124 12 215 108 l71 75 6 -30 c3 -17 6 -46 6 -65 0 -32 1
-33 17 -18 19 20 27 11 37 -46 10 -57 -40 -144 -150 -258 -114 -119 -147 -139
-201 -123 -51 15 -152 77 -202 125 -41 38 -48 61 -43 152 1 11 -1 57 -4 103
-6 76 -7 81 -20 58 -7 -14 -20 -36 -28 -48 -9 -12 -16 -34 -17 -48 0 -14 -3
-20 -5 -14 -7 16 -142 -24 -220 -64 -34 -18 -66 -32 -72 -32 -17 0 -187 -87
-199 -102 -16 -19 -20 -74 -6 -71 7 2 10 -3 7 -10 -7 -18 69 -120 142 -191 91
-89 229 -176 360 -226 22 -9 22 -9 6 42 -15 44 -15 51 -2 62 8 6 26 28 40 48
14 21 28 38 32 38 3 0 9 -35 13 -77 4 -43 10 -94 14 -113 l7 -35 79 -12 c110
-16 179 -16 293 3 221 35 412 133 563 287 67 69 157 198 190 272 l22 49 -23
16 c-35 24 -389 160 -414 160 -6 -1 0 -8 14 -16 14 -8 17 -13 7 -10 -10 3 -23
6 -28 6 -5 0 -9 7 -9 15 0 9 -9 15 -23 15 -13 0 -27 3 -31 8 -4 4 -13 7 -19 7
-7 0 -13 9 -14 20 -2 15 -1 16 5 4 5 -11 15 -13 32 -9 24 6 25 7 3 14 -12 4
-31 9 -44 11 -12 2 -22 6 -23 7 -1 2 -11 20 -21 41 -11 21 -33 52 -49 70 -26
29 -28 34 -16 62 24 60 40 142 42 213 1 86 -7 103 -16 35z m153 -556 c23 -41
26 -51 12 -43 -5 4 -12 0 -15 -6 -3 -7 -5 -4 -4 7 3 29 -12 66 -23 60 -5 -4
-9 -18 -8 -33 0 -24 1 -25 9 -7 6 15 9 9 9 -27 1 -26 5 -58 11 -72 5 -15 6
-26 0 -26 -5 0 -12 10 -16 23 -4 12 -12 25 -18 29 -8 6 -7 8 2 8 6 0 12 5 12
11 0 5 -4 7 -10 4 -6 -4 -10 9 -10 32 0 21 -3 56 -7 77 l-6 40 20 -20 c12 -10
30 -36 42 -57z m68 1 c-3 -8 -6 -5 -6 6 -1 11 2 17 5 13 3 -3 4 -12 1 -19z
m-920 -40 c-3 -8 -6 -5 -6 6 -1 11 2 17 5 13 3 -3 4 -12 1 -19z m-417 -159
c-12 -41 -24 -53 -14 -14 7 32 13 45 19 45 2 0 0 -14 -5 -31z m1257 25 c-3 -3
-12 -4 -19 -1 -8 3 -5 6 6 6 11 1 17 -2 13 -5z m-696 -52 c-11 -4 -11 -6 0
-12 18 -12 36 -80 29 -110 -5 -19 -9 -10 -14 38 -8 59 -17 75 -31 52 -3 -5
-12 -10 -18 -10 -7 0 -4 5 6 11 9 6 15 14 12 20 -9 13 5 30 18 22 8 -5 7 -8
-2 -11z m485 -1 c-10 -11 -31 -25 -47 -31 -16 -7 -29 -16 -29 -20 0 -4 -7 -11
-16 -14 -30 -11 6 24 56 55 53 34 59 35 36 10z m-386 -93 c0 -12 -6 -9 -26 13
-19 22 -19 22 4 8 12 -8 22 -17 22 -21z m-210 -6 c0 -5 -7 -9 -15 -9 -8 0 -12
4 -9 9 3 4 9 8 15 8 5 0 9 -4 9 -8z m511 -6 c5 3 9 1 9 -5 0 -15 -14 -21 -29
-11 -8 4 -10 13 -5 21 6 10 9 10 12 1 2 -7 8 -10 13 -6z m-221 -26 c8 -5 11
-10 5 -10 -5 0 -17 5 -25 10 -8 5 -10 10 -5 10 6 0 17 -5 25 -10z m218 -70
c-2 -60 -11 -78 -21 -40 -3 11 0 20 5 20 6 0 5 6 -2 15 -9 11 -9 15 -1 15 7 0
11 8 10 18 -2 22 0 32 6 32 2 0 4 -27 3 -60z m112 50 c0 -5 -4 -10 -10 -10 -5
0 -10 5 -10 10 0 6 5 10 10 10 6 0 10 -4 10 -10z m-645 -10 c-3 -5 -11 -10
-16 -10 -6 0 -7 5 -4 10 3 6 11 10 16 10 6 0 7 -4 4 -10z m535 -121 c0 -6 9
-9 20 -6 11 3 20 1 20 -4 0 -5 -9 -9 -20 -9 -15 0 -20 -7 -20 -27 0 -37 -8
-25 -14 20 -2 20 0 37 5 37 5 0 9 -5 9 -11z m60 -74 c0 -19 -4 -36 -9 -39 -10
-6 -23 62 -15 76 11 17 24 -4 24 -37z"/>
<path d="M1400 770 c0 -5 5 -10 11 -10 5 0 7 5 4 10 -3 6 -8 10 -11 10 -2 0
-4 -4 -4 -10z"/>
<path d="M622 1290 c0 -19 2 -27 5 -17 2 9 2 25 0 35 -3 9 -5 1 -5 -18z"/>
<path d="M880 1303 c0 -14 57 -53 78 -53 10 0 27 10 38 21 10 12 28 25 39 30
20 8 20 8 -1 8 -11 1 -29 -8 -39 -19 -23 -26 -49 -25 -86 1 -16 11 -29 16 -29
12z"/>
<path d="M1023 1255 c-3 -9 -12 -14 -19 -11 -21 8 -26 -10 -7 -25 9 -8 14 -9
10 -3 -11 18 20 25 34 8 9 -11 14 -12 20 -3 4 7 13 9 20 5 8 -4 30 -15 49 -26
40 -21 44 -20 35 11 -5 15 -10 18 -15 9 -5 -8 -9 -7 -13 4 -12 31 -104 56
-114 31z m33 -22 c-7 -7 -26 7 -26 19 0 6 6 6 15 -2 9 -7 13 -15 11 -17z"/>
<path d="M866 1251 c-4 -7 -5 -15 -2 -18 9 -9 19 4 14 18 -4 11 -6 11 -12 0z"/>
<path d="M834 1237 c-3 -9 -10 -17 -16 -17 -5 0 -6 5 -3 10 11 18 -4 11 -25
-12 -19 -21 -21 -21 -14 -3 7 20 7 20 -14 1 -12 -11 -22 -20 -22 -20 0 -1 17
-2 39 -4 46 -3 87 24 71 48 -8 12 -10 12 -16 -3z"/>
<path d="M902 1238 c-14 -14 -16 -28 -3 -28 9 0 24 30 18 36 -2 2 -9 -2 -15
-8z"/>
<path d="M808 1168 c5 -5 16 -8 23 -6 8 3 3 7 -10 11 -17 4 -21 3 -13 -5z"/>
<path d="M1095 1170 c4 -6 11 -8 16 -5 14 9 11 15 -7 15 -8 0 -12 -5 -9 -10z"/>
<path d="M936 1043 c-12 -12 -5 -23 14 -23 11 0 20 4 20 9 0 11 -26 22 -34 14z"/>
<path d="M1004 1038 c-12 -20 12 -29 29 -10 15 17 15 18 -3 19 -11 1 -22 -3
-26 -9z"/>
<path d="M640 799 c0 -5 5 -7 10 -4 6 3 10 8 10 11 0 2 -4 4 -10 4 -5 0 -10
-5 -10 -11z"/>
<path d="M588 763 c7 -3 16 -2 19 1 4 3 -2 6 -13 5 -11 0 -14 -3 -6 -6z"/>
<path d="M125 531 c-3 -5 -1 -12 5 -16 5 -3 10 1 10 9 0 18 -6 21 -15 7z"/>
</g>
</svg>
